<?xml version="1.0" encoding="UTF-8" standalone="no"?>
<svg
   viewBox="0 0 14 14"
   version="1.1"
   id="svg1"
   sodipodi:docname="brand-xmpp.svg"
   inkscape:version="1.3.2 (091e20ef0f, 2023-11-25, custom)"
   xmlns:inkscape="http://www.inkscape.org/namespaces/inkscape"
   xmlns:sodipodi="http://sodipodi.sourceforge.net/DTD/sodipodi-0.dtd"
   xmlns="http://www.w3.org/2000/svg"
   xmlns:svg="http://www.w3.org/2000/svg">
  <defs
     id="defs1" />
  <sodipodi:namedview
     id="namedview1"
     pagecolor="#ffffff"
     bordercolor="#000000"
     borderopacity="0.25"
     inkscape:showpageshadow="2"
     inkscape:pageopacity="0.0"
     inkscape:pagecheckerboard="0"
     inkscape:deskcolor="#d1d1d1"
     inkscape:zoom="61.5"
     inkscape:cx="6.9918699"
     inkscape:cy="7"
     inkscape:window-width="1920"
     inkscape:window-height="1056"
     inkscape:window-x="0"
     inkscape:window-y="24"
     inkscape:window-maximized="1"
     inkscape:current-layer="svg1" />
  <path
     d="m1.684455 12.50835.4625-.486-.12325-.1403c-.0678-.077-.2552-.2842-.41647-.4601l-.29321-.3198.36033-.016.36033-.016.30276.327.30275.327.29634-.3282.29634-.3283.36068.017.36068.017-.40066.4351c-.22036.2393-.40066.4547-.40066.4787s.20938.2539.46528.511l.46528.4674-.39865.0001h-.39865l-.32436-.3578-.32437-.3578-.33469.3577-.33469.3578h-.37305-.37306l.4625-.486zm2.64109-.4734v-.9595h.44863.44863l.33091.6214.3309.6215.32647-.6205.32647-.6205.46639-.001.46638-.0009v.9595.9594h-.29315-.29316l-.00016-.7063-.00016-.7062-.38628.6929-.38628.6929-.22162.016-.22162.016-.39134-.709-.39134-.7091-.0149.7062-.0149.7063h-.26496-.26496v-.9594zm3.5712 0v-.9595h.93542c1.03985 0 1.18545.035 1.30214.3172.04.097.0578.2927.0439.4846-.0189.2612-.0506.3496-.16738.4665-.13957.1397-.16567.1448-.83592.1618l-.69186.018v.2356.2356h-.29316-.29315v-.9594zm1.64168-.064c.0897-.09.0796-.2859-.0198-.3853-.0636-.064-.19809-.084-.55966-.084h-.47591v.2665.2665h.4957c.31448 0 .51909-.023.55967-.064zm.97008.064v-.9595h.98524.98523l.17407.1555c.16521.1477.17407.1746.17407.5292 0 .2958-.0232.4046-.11141.5227-.14647.1962-.25147.2201-.99459.2264l-.62629.01v.2398.2399h-.29316-.29316v-.9595zm1.62133-.032c.12828-.049.11165-.3757-.0228-.4477-.0594-.032-.30279-.05-.54633-.042l-.43923.015-.0163.2532-.0162.2532h.47827c.26305 0 .51621-.015.56258-.032zm-3.14042-2.7203c-.47062-.1-1.17666-.3393-1.69635-.5762l-.40168-.183-.52337.2141c-.54818.2244-1.51081.4943-1.98896.5577-.39978.053-.33436-.07.11848-.2227.41428-.1397 1.10387-.4903 1.4538-.7391l.24762-.1761-.52362-.344c-.7045-.4629-1.11212-.7952-1.76804-1.4414-1.6021-1.5782-2.50653-3.274-2.70101-5.0644l-.0334-.3072.28376.1126c1.08624.4312 1.61983.6232 2.41582.8689l.90613.2798.0358.5827c.0404.6569.13007 1.0842.37065 1.7659.31659.8971.95069 1.9904 1.50877 2.6012l.24347.2665.23972-.2649c1.12118-1.2389 1.94564-3.1919 1.94564-4.6088v-.4113l.86614-.2533c.47638-.1393 1.25592-.4042 1.7323-.5886l.86615-.3352v.2112c0 .3051-.19221 1.2025-.35405 1.6528-.65737 1.8295-2.16657 3.6514-4.05709 4.8978l-.54679.3605.17368.1303c.52493.394 1.12721.7109 1.69053.8895.61074.1937.24725.2835-.50413.1247z"
     id="path1"
     style="fill:#ffffff" />
</svg>
