<?xml version="1.0" encoding="UTF-8" standalone="no"?>
<svg
   height="16"
   viewBox="0 0 4.233 4.233"
   width="16"
   version="1.1"
   id="svg1"
   sodipodi:docname="codeberg.svg"
   inkscape:version="1.3.2 (091e20ef0f, 2023-11-25, custom)"
   xmlns:inkscape="http://www.inkscape.org/namespaces/inkscape"
   xmlns:sodipodi="http://sodipodi.sourceforge.net/DTD/sodipodi-0.dtd"
   xmlns="http://www.w3.org/2000/svg"
   xmlns:svg="http://www.w3.org/2000/svg">
  <defs
     id="defs1" />
  <sodipodi:namedview
     id="namedview1"
     pagecolor="#ffffff"
     bordercolor="#000000"
     borderopacity="0.25"
     inkscape:showpageshadow="2"
     inkscape:pageopacity="0.0"
     inkscape:pagecheckerboard="0"
     inkscape:deskcolor="#d1d1d1"
     inkscape:zoom="53.8125"
     inkscape:cx="7.9907085"
     inkscape:cy="8"
     inkscape:window-width="1920"
     inkscape:window-height="1056"
     inkscape:window-x="0"
     inkscape:window-y="24"
     inkscape:window-maximized="1"
     inkscape:current-layer="svg1" />
  <path
     d="m0 2.265c0 .398.112.788.323 1.125l1.765-2.281c.013-.016.044-.016.057 0l.737.953h-.528l.011.042h.549l.156.201h-.648l.018.066h.681l.137.177h-.768l.024.085h.81l.122.158h-.888l.029.104h.939l.107.139h-1.008l.032.115h1.065l.099.128h-1.128l.032.115h1.185c.211-.337.323-.727.323-1.125 0-1.169-.947-2.116-2.117-2.116s-2.116.945-2.116 2.114zm2.761 1.253.032.115h.939l.091-.115zm.068.243.032.115h.628l.126-.115zm.067.243.032.114h.212l.184-.114z"
     id="path1"
     style="fill:#ffffff" />
</svg>
