<?xml version="1.0" encoding="UTF-8" standalone="no"?>
<!-- Uploaded to: SVG Repo, www.svgrepo.com, Generator: SVG Repo Mixer Tools -->

<svg
   width="679.96698"
   height="474.67197"
   viewBox="0 0 40.798019 28.480318"
   version="1.1"
   id="svg13"
   sodipodi:docname="misskey.svg"
   inkscape:version="1.4 (e7c3feb100, 2024-10-09)"
   xmlns:inkscape="http://www.inkscape.org/namespaces/inkscape"
   xmlns:sodipodi="http://sodipodi.sourceforge.net/DTD/sodipodi-0.dtd"
   xmlns="http://www.w3.org/2000/svg"
   xmlns:svg="http://www.w3.org/2000/svg">
  <sodipodi:namedview
     id="namedview13"
     pagecolor="#ffffff"
     bordercolor="#000000"
     borderopacity="0.25"
     inkscape:showpageshadow="2"
     inkscape:pageopacity="0.0"
     inkscape:pagecheckerboard="0"
     inkscape:deskcolor="#d1d1d1"
     inkscape:zoom="0.75395261"
     inkscape:cx="368.72344"
     inkscape:cy="326.94363"
     inkscape:window-width="1920"
     inkscape:window-height="1054"
     inkscape:window-x="0"
     inkscape:window-y="26"
     inkscape:window-maximized="1"
     inkscape:current-layer="svg13" />
  <defs
     id="defs1">
    <style
       id="style1">.a,.b,.c{fill:none;stroke:#000000;}.a,.c{stroke-linecap:round;}.a{stroke-linejoin:round;}.b,.c{stroke-miterlimit:5.052;}</style>
  </defs>
  <circle
     class="a"
     cx="35.792309"
     cy="5.0053101"
     r="4.1062999"
     id="circle1"
     style="stroke-width:1.80402;stroke-dasharray:none;stroke:#ffffff;stroke-opacity:1" />
  <path
     class="a"
     d="m 0.89901,5.5342097 a 4.6346,4.6346 0 0 1 4.635,-4.63450003 c 2.56,0 3.2261,1.27150003 4.0015,2.24870003 l 9.0925,11.6774003"
     id="path1"
     style="stroke-width:1.80402;stroke-dasharray:none;stroke:#ffffff;stroke-opacity:1" />
  <path
     class="a"
     d="m 29.20721,22.94551 a 4.6345,4.6345 0 1 1 -9.269,0"
     id="path2"
     style="stroke-width:1.80402;stroke-dasharray:none;stroke:#ffffff;stroke-opacity:1" />
  <path
     class="b"
     d="M 0.89901,22.94551 V 5.5331097"
     id="path3"
     style="stroke-width:1.80402;stroke-dasharray:none;stroke:#ffffff;stroke-opacity:1" />
  <path
     class="a"
     d="m 11.39031,19.96531 -1.2222,-1.5726 v 4.5531 a 4.6346,4.6346 0 0 1 -9.2691,0"
     id="path4"
     style="stroke-width:1.80402;stroke-dasharray:none;stroke:#ffffff;stroke-opacity:1" />
  <path
     class="a"
     d="m 19.93901,22.94551 v -4.5531 l -1.2222,1.5727"
     id="path5"
     style="stroke-width:1.80402;stroke-dasharray:none;stroke:#ffffff;stroke-opacity:1" />
  <path
     class="a"
     d="m 4.63681,11.27551 5.5322,7.1175"
     id="path6"
     style="stroke-width:1.80402;stroke-dasharray:none;stroke:#ffffff;stroke-opacity:1" />
  <path
     class="a"
     d="m 19.93901,18.39251 5.6048,-7.2243"
     id="path7"
     style="stroke-width:1.80402;stroke-dasharray:none;stroke:#ffffff;stroke-opacity:1" />
  <path
     class="b"
     d="m 11.39031,19.96531 c 0,0 3.3789,4.8348 7.3256,0"
     id="path8"
     style="stroke-width:1.80402;stroke-dasharray:none;stroke:#ffffff;stroke-opacity:1" />
  <path
     class="c"
     d="m 4.66901,11.30811 c -1.5478,-1.9300003 -3.46,-0.7345 -3.7609,1.0781"
     id="path9"
     style="stroke-width:1.80402;stroke-dasharray:none;stroke:#ffffff;stroke-opacity:1" />
  <path
     class="c"
     d="m 18.62901,14.82561 c 1.4448,1.67 3.2924,1.1495 4.3789,-0.3829"
     id="path10"
     style="stroke-width:1.80402;stroke-dasharray:none;stroke:#ffffff;stroke-opacity:1" />
  <path
     class="c"
     d="m 25.54341,11.16801 a 2.0456,2.0456 0 0 1 3.6526,0.3295"
     id="path11"
     style="stroke-width:1.80402;stroke-dasharray:none;stroke:#ffffff;stroke-opacity:1" />
  <path
     class="c"
     d="m 12.91571,7.4609097 c 1.4276,1.8926 2.8478,1.9305 4.3507,0.0584 l 3.5432,-4.5832 c 0.6881,-0.8126 1.2038,-2.03670003 3.7633,-2.03670003 a 4.6346,4.6346 0 0 1 4.6346,4.63450003 V 22.94641"
     id="path12"
     style="stroke-width:1.80402;stroke-dasharray:none;stroke:#ffffff;stroke-opacity:1" />
  <path
     class="b"
     d="m 35.79131,10.88571 a 4.1055,4.1055 0 0 0 -4.1059,4.1059 v 8.4829 a 4.1068,4.1068 0 0 0 8.2136,0 v -8.4829 a 4.1071,4.1071 0 0 0 -4.1077,-4.1059 z"
     id="path13"
     style="stroke-width:1.80402;stroke-dasharray:none;stroke:#ffffff;stroke-opacity:1" />
</svg>
